<?xml version="1.0" encoding="UTF-8" standalone="no" ?>
<!DOCTYPE svg PUBLIC "-//W3C//DTD SVG 1.1//EN" "http://www.w3.org/Graphics/SVG/1.1/DTD/svg11.dtd">
<svg xmlns="http://www.w3.org/2000/svg" xmlns:xlink="http://www.w3.org/1999/xlink" version="1.1" width="32" height="32" viewBox="0 0 500 500" xml:space="preserve">
<desc>Created with Fabric.js 4.6.0</desc>
<defs>
</defs>
<g transform="matrix(0.81 0 0 0.81 242.6 245.65)" id="8J4fVC61CqzQgMdyO2MLt"  >
<path style="stroke: none; stroke-width: 1; stroke-dasharray: none; stroke-linecap: butt; stroke-dashoffset: 0; stroke-linejoin: miter; stroke-miterlimit: 4; fill: rgb(51,51,51); fill-rule: nonzero; opacity: 1;" vector-effect="non-scaling-stroke"  transform=" translate(-300.46, -310.64)" d="M 231.124 355.165 L 214.893 355.165 L 192.775 329.40500000000003 C 192.362 328.92400000000004 191.75900000000001 328.646 191.124 328.646 L 182.644 328.646 C 182.153 328.646 181.704 328.815 181.34 329.089 C 180.689 329.163 180.177 329.696 180.177 330.366 L 180.177 348.993 L 171.613 348.993 C 170.892 348.993 170.307 349.578 170.307 350.299 L 170.307 354.21799999999996 L 163.04999999999998 354.21799999999996 L 163.04999999999998 343.914 C 163.04999999999998 343.193 162.46499999999997 342.608 161.74399999999997 342.608 L 153.95199999999997 342.608 L 156.36699999999996 333.25 C 156.54599999999996 332.552 156.36999999999995 331.811 155.89499999999995 331.269 L 146.87399999999997 320.995 L 158.87899999999996 320.995 C 159.29499999999996 320.995 159.68699999999995 320.797 159.93299999999996 320.461 L 167.40399999999997 310.26800000000003 C 167.72699999999998 309.82700000000006 167.72999999999996 309.25300000000004 167.46099999999996 308.814 C 167.55899999999997 308.154 167.35999999999996 307.458 166.84999999999997 306.95000000000005 L 143.59499999999997 283.79200000000003 L 149.49299999999997 283.79200000000003 C 149.95399999999998 283.79200000000003 150.40299999999996 283.646 150.77499999999998 283.374 L 161.23399999999998 275.752 C 161.93999999999997 275.237 162.26999999999998 274.351 162.07299999999998 273.50100000000003 L 160.72299999999998 267.675 L 179.599 252.151 C 180.10199999999998 251.73700000000002 180.393 251.12 180.393 250.46900000000002 L 180.393 246.13200000000003 L 206.386 246.13200000000003 C 207.287 246.13200000000003 208.095 245.57700000000003 208.41899999999998 244.73600000000005 C 208.742 243.89500000000004 208.51299999999998 242.94200000000004 207.84499999999997 242.33900000000006 L 180.98199999999997 218.10200000000006 C 180.65199999999996 217.80400000000006 180.23999999999998 217.61500000000007 179.79899999999998 217.55900000000005 L 170.99899999999997 216.43700000000004 L 162.67799999999997 209.08800000000005 C 162.24399999999997 208.70600000000005 161.68299999999996 208.51000000000005 161.09799999999996 208.54700000000005 C 160.52099999999996 208.58400000000006 159.98199999999994 208.84900000000005 159.59999999999997 209.28400000000005 L 153.67999999999998 216.03100000000006 C 153.28599999999997 216.47900000000007 153.09399999999997 217.06900000000007 153.14799999999997 217.66300000000007 C 153.20199999999997 218.25700000000006 153.49699999999996 218.80300000000005 153.96499999999997 219.17300000000006 L 161.05999999999997 224.79200000000006 L 151.01699999999997 235.19200000000006 L 141.34799999999996 231.83500000000006 L 128.91299999999995 218.56400000000008 L 140.68699999999995 205.4480000000001 C 141.43199999999996 204.61900000000009 141.42899999999995 203.3610000000001 140.68199999999996 202.5340000000001 L 129.18199999999996 189.8120000000001 C 128.77699999999996 189.3640000000001 128.20399999999995 189.1040000000001 127.59899999999996 189.09500000000008 C 127.02299999999997 189.05800000000008 126.41399999999996 189.3280000000001 125.99599999999997 189.7640000000001 L 119.88699999999997 196.1280000000001 L 104.83699999999997 192.6350000000001 C 103.65899999999998 192.3590000000001 102.49599999999998 193.0920000000001 102.22399999999998 194.2630000000001 C 101.95299999999997 195.43400000000008 102.68199999999997 196.6040000000001 103.85299999999998 196.8760000000001 L 120.10799999999998 200.6500000000001 C 120.85499999999998 200.8250000000001 121.63899999999998 200.5910000000001 122.17099999999998 200.0370000000001 L 127.51899999999998 194.4660000000001 L 136.13599999999997 204.00000000000009 L 124.33799999999997 217.1430000000001 C 123.58399999999996 217.9840000000001 123.59699999999997 219.26100000000008 124.36899999999997 220.0860000000001 L 138.53799999999998 235.2060000000001 C 138.779 235.4630000000001 139.07899999999998 235.6580000000001 139.41199999999998 235.77400000000011 L 150.902 239.76400000000012 C 151.701 240.04000000000013 152.59199999999998 239.83000000000013 153.183 239.2200000000001 L 155.296 237.03200000000012 L 167.442 237.03200000000012 L 167.442 256.4740000000001 C 167.442 256.4870000000001 167.449 256.4970000000001 167.449 256.5090000000001 L 166.10500000000002 257.61400000000015 L 137.64700000000002 257.61400000000015 L 125.23900000000002 246.15800000000016 C 124.99700000000001 245.93500000000014 124.68100000000001 245.81200000000015 124.35300000000002 245.81200000000015 L 77.968 245.81200000000015 C 77.934 245.76700000000017 77.909 245.71700000000016 77.87100000000001 245.67400000000015 L 53.39900000000001 218.06300000000016 L 53.39900000000001 195.40400000000017 C 53.39900000000001 194.68200000000016 52.81400000000001 194.09800000000016 52.09300000000001 194.09800000000016 C 51.372000000000014 194.09800000000016 50.78700000000001 194.68300000000016 50.78700000000001 195.40400000000017 L 50.78700000000001 215.99600000000015 C 50.713000000000015 215.98800000000014 50.64100000000001 215.97300000000016 50.567000000000014 215.97300000000016 L 32.79 215.97300000000016 C 32.384 215.97300000000016 31.986 216.08700000000016 31.64 216.30100000000016 L 20.825000000000003 223.02400000000017 L 5.075000000000003 209.35100000000017 L 5.075000000000003 196.52700000000016 L 20.57 189.70600000000016 L 46.21 189.70600000000016 C 47.412 189.70600000000016 48.387 188.73100000000017 48.387 187.52900000000017 C 48.387 186.32700000000017 47.412 185.35200000000017 46.21 185.35200000000017 L 20.112 185.35200000000017 C 19.81 185.35200000000017 19.511999999999997 185.41500000000016 19.233999999999998 185.53700000000018 L 2.0209999999999972 193.11500000000018 C 1.2309999999999972 193.4630000000002 0.7209999999999972 194.24400000000017 0.7209999999999972 195.10800000000017 L 0.7209999999999972 210.34500000000017 C 0.7209999999999972 210.97600000000017 0.9949999999999972 211.57600000000016 1.4709999999999972 211.98900000000017 L 19.182999999999996 227.36600000000018 C 19.902999999999995 227.99100000000018 20.945999999999998 228.0770000000002 21.759999999999998 227.5710000000002 L 33.411 220.3280000000002 L 49.586 220.3280000000002 L 73.916 247.7780000000002 L 70.821 265.5080000000002 C 70.702 266.1900000000002 70.91499999999999 266.8890000000002 71.39399999999999 267.3890000000002 L 85.87799999999999 282.4920000000002 C 86.28899999999999 282.9200000000002 86.85599999999998 283.1620000000002 87.44999999999999 283.1620000000002 L 94.30699999999999 283.1620000000002 L 109.23999999999998 301.2760000000002 L 105.34299999999998 307.46700000000016 C 104.79399999999997 308.33900000000017 104.93099999999997 309.47600000000017 105.67099999999998 310.1920000000002 L 116.61499999999998 320.77400000000017 C 117.02099999999999 321.16700000000014 117.56399999999998 321.3860000000002 118.12899999999998 321.3860000000002 L 141.42199999999997 321.3860000000002 L 151.86199999999997 333.2770000000002 L 146.88299999999995 352.5700000000002 C 146.70099999999996 353.2770000000002 146.88499999999996 354.0270000000002 147.37099999999995 354.56900000000024 L 176.56199999999995 387.06600000000026 L 150.81799999999996 476.4280000000002 C 150.62799999999996 477.0850000000002 150.75899999999996 477.7940000000002 151.17099999999996 478.3400000000002 C 151.58199999999997 478.8870000000002 152.22599999999997 479.2080000000002 152.90999999999997 479.2080000000002 L 176.23799999999997 479.2080000000002 C 177.44099999999997 479.2080000000002 178.41499999999996 478.2330000000002 178.41499999999996 477.0310000000002 C 178.41499999999996 475.8290000000002 177.43999999999997 474.85400000000016 176.23799999999997 474.85400000000016 L 155.80299999999997 474.85400000000016 L 181.07999999999998 387.11200000000014 C 181.28699999999998 386.39000000000016 181.10899999999998 385.6130000000001 180.60699999999997 385.05400000000014 L 172.90599999999998 376.48100000000017 C 172.90699999999998 376.4610000000002 172.91799999999998 376.4440000000002 172.91799999999998 376.42400000000015 L 172.91799999999998 369.02200000000016 L 189.46299999999997 369.02200000000016 L 189.46299999999997 407.1920000000002 C 189.46299999999997 407.9130000000002 190.04799999999997 408.49800000000016 190.76899999999998 408.49800000000016 L 212.94599999999997 408.49800000000016 L 193.31999999999996 453.29900000000015 C 192.83799999999997 454.40000000000015 193.33899999999997 455.68400000000014 194.44099999999997 456.16700000000014 C 194.72499999999997 456.29100000000017 195.02199999999996 456.35100000000017 195.31399999999996 456.35100000000017 C 196.15199999999996 456.35100000000017 196.95099999999996 455.86400000000015 197.30899999999997 455.04600000000016 L 233.11799999999997 373.3050000000002 C 233.23899999999998 373.02900000000017 233.30099999999996 372.7330000000002 233.30099999999996 372.4320000000002 L 233.30099999999996 357.3410000000002 C 233.301 356.14 232.326 355.165 231.124 355.165 z M 168.746 234.421 L 157.816 234.421 L 165.859 226.093 C 166.285 225.65099999999998 166.505 225.04899999999998 166.465 224.43599999999998 C 166.424 223.82299999999998 166.126 223.25599999999997 165.644 222.87399999999997 L 158.461 217.18599999999998 L 161.431 213.802 L 168.61700000000002 220.149 C 168.94400000000002 220.438 169.35000000000002 220.621 169.78300000000002 220.677 L 178.57100000000003 221.797 L 200.723 241.784 L 178.216 241.784 C 177.014 241.784 176.03900000000002 242.759 176.03900000000002 243.96099999999998 L 176.03900000000002 249.446 L 170.05200000000002 254.37 L 170.05200000000002 235.729 C 170.052 235.005 169.467 234.421 168.746 234.421 z M 75.301 265.172 L 78.224 248.42700000000002 L 123.839 248.42700000000002 L 136.24699999999999 259.88300000000004 C 136.488 260.10600000000005 136.80499999999998 260.23 137.13299999999998 260.23 L 162.92499999999998 260.23 L 156.91199999999998 265.175 C 156.27299999999997 265.7 155.98699999999997 266.54200000000003 156.17399999999998 267.348 L 157.50499999999997 273.086 L 148.78199999999995 279.442 L 138.32199999999995 279.442 C 137.44099999999995 279.442 136.64599999999996 279.973 136.30999999999995 280.788 C 135.97299999999996 281.60200000000003 136.16099999999994 282.539 136.78599999999994 283.161 L 143.32299999999995 289.67 L 123.17599999999996 289.67 L 115.46999999999996 280.164 C 115.22199999999995 279.858 114.84899999999996 279.681 114.45499999999996 279.681 L 97.079 279.681 L 97.014 279.602 C 96.601 279.09999999999997 95.984 278.81 95.33399999999999 278.81 L 88.38 278.81 L 75.301 265.172 z M 119.01 317.033 L 109.97 308.29200000000003 L 113.764 302.26500000000004 C 114.265 301.47100000000006 114.199 300.44500000000005 113.60199999999999 299.72100000000006 L 99.23299999999999 282.2920000000001 L 113.835 282.2920000000001 L 121.541 291.7980000000001 C 121.788 292.1040000000001 122.16199999999999 292.2810000000001 122.556 292.2810000000001 L 145.949 292.2810000000001 L 163.78 310.03700000000015 C 163.889 310.14500000000015 164.006 310.23900000000015 164.13 310.31900000000013 L 158.219 318.3840000000001 L 144.58 318.3840000000001 L 144.044 317.77300000000014 C 143.631 317.30200000000013 143.03500000000003 317.03200000000015 142.40800000000002 317.03200000000015 L 119.01 317.03200000000015 z M 151.391 352.529 L 153.277 345.222 L 160.43699999999998 345.222 L 160.43699999999998 355.52599999999995 C 160.43699999999998 356.24699999999996 161.022 356.83199999999994 161.743 356.83199999999994 L 170.30599999999998 356.83199999999994 L 170.30599999999998 373.58699999999993 L 151.391 352.529 z M 228.947 371.978 L 214.092 405.88800000000003 L 192.077 405.88800000000003 L 192.077 367.71700000000004 C 192.077 366.99600000000004 191.492 366.41100000000006 190.771 366.41100000000006 L 172.91899999999998 366.41100000000006 L 172.91899999999998 351.6070000000001 L 181.48299999999998 351.6070000000001 C 182.20399999999998 351.6070000000001 182.789 351.0220000000001 182.789 350.3010000000001 L 182.789 333.0010000000001 L 190.124 333.0010000000001 L 212.242 358.7610000000001 C 212.655 359.2420000000001 213.25799999999998 359.5200000000001 213.893 359.5200000000001 L 228.947 359.5200000000001 L 228.947 371.978 z M 256.625 166.921 L 270.438 154.545 C 271.041 154.005 271.294 153.17499999999998 271.096 152.39 C 270.897 151.605 270.28000000000003 150.99499999999998 269.493 150.807 L 233.278 142.128 C 233.111 142.088 232.941 142.06799999999998 232.76999999999998 142.06799999999998 L 204.82899999999998 142.06799999999998 C 204.47099999999998 142.06799999999998 204.11899999999997 142.15599999999998 203.80299999999997 142.325 L 167.31299999999996 161.82399999999998 C 166.60499999999996 162.20299999999997 166.16199999999995 162.94099999999997 166.16199999999995 163.74399999999997 L 166.16199999999995 170.65599999999998 C 166.16199999999995 171.85899999999998 167.13599999999994 172.83299999999997 168.33899999999994 172.83299999999997 L 187.58999999999995 172.83299999999997 L 198.41899999999995 184.80799999999996 L 187.37599999999995 192.21199999999996 C 186.86199999999994 192.55699999999996 186.51799999999994 193.10399999999996 186.43199999999996 193.71799999999996 C 186.34599999999995 194.33099999999996 186.52499999999995 194.95199999999997 186.92499999999995 195.42499999999995 L 206.93499999999995 219.10899999999995 C 207.34799999999996 219.59899999999996 207.95599999999993 219.88099999999994 208.59799999999996 219.88099999999994 L 215.58799999999997 219.88099999999994 C 216.45899999999997 219.88099999999994 217.24599999999995 219.36199999999994 217.58899999999997 218.56099999999995 L 223.45499999999998 204.86399999999995 L 234.32 204.86399999999995 C 234.849 204.86399999999995 235.35999999999999 204.67099999999994 235.757 204.32199999999995 L 255.886 186.62899999999993 C 256.356 186.21599999999992 256.626 185.61999999999995 256.626 184.99399999999994 L 256.626 166.921 z M 252.995 164.327 C 252.534 164.74 252.27100000000002 165.32999999999998 252.27100000000002 165.948 L 252.27100000000002 184.00900000000001 L 233.49800000000002 200.50900000000001 L 222.01800000000003 200.50900000000001 C 221.14700000000002 200.50900000000001 220.36000000000004 201.02800000000002 220.01700000000002 201.829 L 214.151 215.526 L 209.608 215.526 L 191.821 194.473 L 202.934 187.02300000000002 C 203.46 186.67100000000002 203.806 186.10800000000003 203.883 185.48100000000002 C 203.96 184.85300000000004 203.761 184.22400000000002 203.33700000000002 183.75500000000002 L 190.17200000000003 169.19600000000003 C 189.75900000000001 168.74000000000004 189.17300000000003 168.479 188.55700000000002 168.479 L 170.51600000000002 168.479 L 170.51600000000002 165.049 L 205.37400000000002 146.422 L 232.51300000000003 146.422 L 264.44000000000005 154.073 L 252.995 164.327 z M 376.633 333.215 L 362.62 333.215 L 328.056 294.075 C 327.643 293.60699999999997 327.048 293.339 326.424 293.339 L 316.414 293.339 L 307.20099999999996 285.037 C 306.79999999999995 284.67699999999996 306.282 284.477 305.74299999999994 284.477 L 290.4819999999999 284.477 C 289.2799999999999 284.477 288.3049999999999 285.452 288.3049999999999 286.654 C 288.3049999999999 287.856 289.2799999999999 288.831 290.4819999999999 288.831 L 293.0239999999999 288.831 L 293.0239999999999 298.17900000000003 L 273.96699999999987 298.17900000000003 C 273.24599999999987 298.17900000000003 272.6609999999999 298.764 272.6609999999999 299.485 L 272.6609999999999 309.442 L 259.2809999999999 309.442 C 259.0979999999999 309.392 258.9089999999999 309.357 258.7109999999999 309.357 C 257.5079999999999 309.357 256.5339999999999 310.33200000000005 256.5339999999999 311.53400000000005 L 256.5339999999999 328.57400000000007 C 256.5339999999999 329.15200000000004 256.7639999999999 329.70700000000005 257.17399999999986 330.11600000000004 L 274.9449999999999 347.838 C 275.3529999999999 348.244 275.9059999999999 348.473 276.4829999999999 348.473 L 297.6489999999999 348.473 L 314.1769999999999 373.567 L 305.7629999999999 386.452 C 305.37999999999994 387.039 305.3019999999999 387.774 305.5549999999999 388.427 L 317.1429999999999 418.41900000000004 C 317.4669999999999 419.25800000000004 318.2739999999999 419.81100000000004 319.1739999999999 419.81100000000004 L 348.9699999999999 419.81100000000004 C 350.1719999999999 419.81100000000004 351.14699999999993 418.836 351.14699999999993 417.634 L 351.14699999999993 393.27000000000004 L 359.5419999999999 383.50000000000006 C 359.8809999999999 383.1050000000001 360.0679999999999 382.60200000000003 360.0679999999999 382.08200000000005 L 360.0679999999999 369.61600000000004 L 378.3929999999999 344.58200000000005 C 378.66599999999994 344.20900000000006 378.81299999999993 343.75900000000007 378.81299999999993 343.29600000000005 L 378.81299999999993 335.3910000000001 C 378.81 334.189 377.836 333.215 376.633 333.215 z M 304.908 288.832 L 314.12 297.134 C 314.521 297.494 315.039 297.694 315.57800000000003 297.694 L 325.442 297.694 L 333.705 307.05 L 333.705 334.165 L 328.864 334.165 C 328.625 333.89700000000005 328.286 333.72 327.89799999999997 333.72 C 327.51 333.72 327.17199999999997 333.89700000000005 326.933 334.165 L 314.23699999999997 334.165 L 304.299 323.541 C 304.301 323.515 304.31399999999996 323.493 304.31399999999996 323.466 C 304.31399999999996 322.745 303.729 322.16 303.008 322.16 L 303.008 322.16 L 295.638 314.28200000000004 L 295.638 288.83200000000005 L 304.908 288.83200000000005 z M 260.889 327.672 L 260.889 312.055 L 273.968 312.055 C 274.689 312.055 275.274 311.47 275.274 310.749 L 275.274 300.793 L 293.024 300.793 L 293.024 314.798 C 293.024 315.13 293.15 315.449 293.376 315.69 L 299.429 322.161 L 285.66099999999994 322.161 C 284.93999999999994 322.161 284.35499999999996 322.746 284.35499999999996 323.467 L 284.35499999999996 344.121 L 277.38199999999995 344.121 L 260.889 327.672 z M 300.639 345.1 C 300.236 344.48900000000003 299.553 344.12 298.821 344.12 L 286.968 344.12 L 286.968 324.772 L 301.874 324.772 L 312.71700000000004 336.36199999999997 C 312.96400000000006 336.626 313.31000000000006 336.77599999999995 313.67100000000005 336.77599999999995 L 326.59200000000004 336.77599999999995 L 326.59200000000004 379.95599999999996 L 315.20400000000006 379.95599999999996 L 318.6020000000001 374.75199999999995 C 319.0770000000001 374.02599999999995 319.0750000000001 373.08799999999997 318.59800000000007 372.364 L 300.639 345.1 z M 347.316 391.046 C 346.977 391.441 346.78999999999996 391.944 346.78999999999996 392.465 L 346.78999999999996 415.45899999999995 L 320.664 415.45899999999995 L 310.017 387.8999999999999 L 313.577 382.4479999999999 C 313.742 382.5229999999999 313.922 382.5709999999999 314.115 382.5709999999999 L 327.897 382.5709999999999 C 328.618 382.5709999999999 329.203 381.98599999999993 329.203 381.26499999999993 L 329.203 361.23 L 342.59499999999997 361.23 L 342.59499999999997 375.04 C 342.59499999999997 375.761 343.17999999999995 376.346 343.90099999999995 376.346 L 355.71 376.346 L 355.71 381.277 L 347.316 391.046 z M 374.456 342.585 L 356.13100000000003 367.61899999999997 C 355.858 367.99199999999996 355.711 368.44199999999995 355.711 368.905 L 355.711 373.73299999999995 L 345.209 373.73299999999995 L 345.209 359.92299999999994 C 345.209 359.20199999999994 344.624 358.61699999999996 343.903 358.61699999999996 L 329.20500000000004 358.61699999999996 L 329.20500000000004 336.777 L 335.01200000000006 336.777 C 335.73300000000006 336.777 336.31800000000004 336.192 336.31800000000004 335.471 L 336.31800000000004 310.008 L 360.00700000000006 336.83299999999997 C 360.4200000000001 337.301 361.01500000000004 337.56899999999996 361.63900000000007 337.56899999999996 L 374.45700000000005 337.56899999999996 L 374.45700000000005 342.585 z M 536.898 373.488 C 536.485 373.019 535.889 372.751 535.264 372.751 L 525.213 372.751 C 524.01 372.751 523.036 373.726 523.036 374.928 L 523.036 385.167 L 517.5799999999999 381.678 L 517.5799999999999 377.731 C 517.5799999999999 376.528 516.6059999999999 375.554 515.4029999999999 375.554 L 502.7849999999999 375.554 C 502.5489999999999 375.554 502.3139999999999 375.592 502.0899999999999 375.66799999999995 L 486.9059999999999 380.78299999999996 C 486.01999999999987 381.08199999999994 485.42399999999986 381.912 485.42399999999986 382.84599999999995 L 485.42399999999986 390.191 L 470.88599999999985 397.75699999999995 C 470.1659999999998 398.13199999999995 469.7139999999998 398.876 469.7139999999998 399.68799999999993 L 469.7139999999998 420.9459999999999 C 469.7139999999998 422.1479999999999 470.68899999999985 423.12299999999993 471.89099999999985 423.12299999999993 L 491.10899999999987 423.12299999999993 C 491.3559999999999 423.12299999999993 491.59999999999985 423.08099999999996 491.8319999999999 422.99999999999994 L 508.0669999999999 417.28299999999996 L 519.1069999999999 417.28299999999996 L 532.1609999999998 431.74799999999993 C 532.5739999999998 432.20599999999996 533.1609999999998 432.4669999999999 533.7779999999998 432.4669999999999 L 544.8369999999998 432.4669999999999 C 546.0389999999998 432.4669999999999 547.0139999999998 431.49299999999994 547.0139999999998 430.2899999999999 L 547.0139999999998 404.7069999999999 L 559.5619999999998 404.66899999999987 C 560.4169999999998 404.6659999999999 561.1909999999998 404.1639999999999 561.5409999999998 403.3849999999999 C 561.8909999999998 402.6059999999999 561.7539999999998 401.6939999999999 561.1889999999999 401.05199999999985 L 536.898 373.488 z M 544.829 400.359 C 543.6289999999999 400.36199999999997 542.659 401.33599999999996 542.659 402.536 L 542.659 428.112 L 534.745 428.112 L 521.691 413.64700000000005 C 521.278 413.189 520.691 412.92800000000005 520.0740000000001 412.92800000000005 L 507.6940000000001 412.92800000000005 C 507.44700000000006 412.92800000000005 507.2030000000001 412.97 506.97100000000006 413.05100000000004 L 490.73600000000005 418.76800000000003 L 474.06800000000004 418.76800000000003 L 474.06800000000004 401.01 L 488.60600000000005 393.444 C 489.3260000000001 393.069 489.7780000000001 392.325 489.7780000000001 391.51300000000003 L 489.7780000000001 384.41 L 503.14200000000005 379.908 L 513.226 379.908 L 513.226 382.87 C 513.226 383.612 513.604 384.30400000000003 514.23 384.704 L 524.04 390.97700000000003 C 524.7099999999999 391.406 525.562 391.43500000000006 526.2579999999999 391.052 C 526.9559999999999 390.67 527.3899999999999 389.93800000000005 527.3899999999999 389.14300000000003 L 527.3899999999999 377.105 L 534.2809999999998 377.105 L 554.7459999999999 400.329 L 544.829 400.359 z M 599.256 194.966 C 598.264 194.286 596.91 194.535 596.2289999999999 195.526 L 588.4939999999999 206.774 L 577.4469999999999 206.774 C 576.2439999999999 206.774 575.2699999999999 207.749 575.2699999999999 208.951 L 575.2699999999999 217.07299999999998 L 564.4229999999999 226.08299999999997 L 564.4229999999999 218.41499999999996 L 570.4859999999999 210.73599999999996 C 570.7899999999998 210.35199999999998 570.9549999999999 209.87599999999995 570.9549999999999 209.38699999999997 L 570.9549999999999 204.59699999999998 C 570.9549999999999 203.39499999999998 569.9799999999999 202.42 568.7779999999999 202.42 L 558.3279999999999 202.42 C 557.1249999999999 202.42 556.1509999999998 203.39499999999998 556.1509999999998 204.59699999999998 L 556.1509999999998 208.951 L 533.5099999999999 208.951 C 532.8989999999999 208.951 532.3179999999999 209.207 531.9049999999999 209.65699999999998 L 522.3259999999999 220.10699999999997 C 521.8369999999999 220.63999999999996 521.6449999999999 221.38199999999998 521.8129999999999 222.08499999999998 C 521.9819999999999 222.789 522.4889999999999 223.36299999999997 523.1659999999998 223.617 L 531.3679999999998 226.69299999999998 L 521.2679999999998 247.26799999999997 L 519.1409999999998 247.26799999999997 L 519.1409999999998 236.81799999999998 C 519.1409999999998 236.29199999999997 518.9509999999998 235.784 518.6049999999999 235.38799999999998 L 506.84899999999993 221.89 C 506.4359999999999 221.415 505.83699999999993 221.14299999999997 505.2079999999999 221.14299999999997 L 498.2419999999999 221.14299999999997 C 497.4539999999999 221.14299999999997 496.7269999999999 221.56899999999996 496.3419999999999 222.25599999999997 L 490.86999999999995 232.02799999999996 L 430.275 232.02799999999996 L 423.935 220.93399999999997 C 423.547 220.25599999999997 422.826 219.83699999999996 422.044 219.83699999999996 L 398.967 219.83699999999996 C 398.447 219.83699999999996 397.945 220.02299999999997 397.55 220.36099999999996 L 389.01800000000003 227.67399999999995 L 376.761 227.67399999999995 C 375.55800000000005 227.67399999999995 374.584 228.64899999999994 374.584 229.85099999999994 L 374.584 254.67499999999995 L 364.892 259.89399999999995 L 346.19 259.89399999999995 L 348.715 257.2819999999999 L 362.393 257.2819999999999 C 362.99399999999997 257.2819999999999 363.568 257.03399999999993 363.97999999999996 256.59599999999995 C 364.39199999999994 256.15799999999996 364.60299999999995 255.56899999999996 364.566 254.96999999999994 L 364.131 248.00399999999993 C 364.09299999999996 247.38399999999993 363.791 246.81099999999992 363.304 246.42799999999994 L 358.075 242.31899999999993 L 358.075 221.96999999999994 C 358.075 221.24799999999993 357.49 220.66399999999993 356.769 220.66399999999993 L 344.704 220.66399999999993 L 344.704 198.41 L 351.527 203.41899999999998 C 351.909 203.69899999999998 352.361 203.84099999999998 352.815 203.84099999999998 C 353.182 203.84099999999998 353.55 203.748 353.882 203.56099999999998 L 382.993 187.17999999999998 L 406.805 187.17999999999998 C 407.955 187.17999999999998 408.906 186.28599999999997 408.978 185.13899999999998 L 409.548 176.02499999999998 L 413.349 179.82599999999996 L 413.349 185.43799999999996 C 413.349 186.63999999999996 414.323 187.61499999999995 415.526 187.61499999999995 L 423.786 187.61499999999995 C 424.989 187.61499999999995 425.963 186.63999999999996 425.963 185.43799999999996 L 425.963 173.43099999999995 L 470.77700000000004 156.03699999999995 L 477.386 161.25299999999996 L 470.043 169.64099999999996 C 469.48 170.28399999999996 469.346 171.19599999999997 469.699 171.97399999999996 C 470.052 172.75199999999995 470.827 173.25199999999995 471.68100000000004 173.25199999999995 L 509.591 173.25199999999995 L 521.581 184.13499999999996 C 521.982 184.49899999999997 522.504 184.69999999999996 523.0450000000001 184.69999999999996 L 555.9340000000001 184.69999999999996 C 557.1370000000001 184.69999999999996 558.1110000000001 183.72499999999997 558.1110000000001 182.52299999999997 C 558.1110000000001 181.31999999999996 557.1360000000001 180.34599999999998 555.9340000000001 180.34599999999998 L 523.8860000000001 180.34599999999998 L 511.8960000000001 169.462 C 511.49500000000006 169.099 510.97300000000007 168.897 510.4320000000001 168.897 L 476.48 168.897 L 482.171 162.397 C 482.56399999999996 161.94799999999998 482.756 161.357 482.70099999999996 160.763 C 482.647 160.169 482.35099999999994 159.62300000000002 481.88199999999995 159.25400000000002 L 472.49799999999993 151.848 C 471.8929999999999 151.37 471.08099999999996 151.24800000000002 470.3619999999999 151.52700000000002 L 422.9989999999999 169.911 C 422.1609999999999 170.236 421.6089999999999 171.042 421.6089999999999 171.94 L 421.6089999999999 183.261 L 417.7029999999999 183.261 L 417.7029999999999 178.924 C 417.7029999999999 178.347 417.4729999999999 177.793 417.06499999999994 177.38500000000002 L 409.2149999999999 169.53500000000003 C 408.6099999999999 168.92900000000003 407.7049999999999 168.735 406.9059999999999 169.038 C 406.1049999999999 169.341 405.55599999999987 170.084 405.5029999999999 170.93900000000002 L 404.7599999999999 182.82600000000002 L 382.42199999999985 182.82600000000002 C 382.04799999999983 182.82600000000002 381.67999999999984 182.92200000000003 381.35499999999985 183.10600000000002 L 352.97099999999983 199.07800000000003 L 347.42199999999985 195.00500000000002 L 364.04499999999985 182.79900000000004 C 364.80399999999986 182.24200000000005 365.1179999999998 181.26100000000002 364.82599999999985 180.36600000000004 C 364.53299999999984 179.47100000000003 363.69799999999987 178.86700000000005 362.75699999999983 178.86700000000005 L 325.2919999999998 178.86700000000005 C 324.8459999999998 178.86700000000005 324.41099999999983 179.00400000000005 324.0459999999998 179.25900000000004 L 304.4719999999998 192.92300000000003 C 303.4849999999998 193.61100000000002 303.24499999999983 194.96800000000002 303.9329999999998 195.95400000000004 C 304.62199999999984 196.94100000000003 305.9789999999998 197.18100000000004 306.9639999999998 196.49300000000002 L 325.9769999999998 183.22200000000004 L 356.1149999999998 183.22200000000004 L 342.45699999999977 193.25100000000003 C 342.28499999999974 193.37800000000004 342.14299999999974 193.53300000000004 342.01699999999977 193.70000000000005 L 325.15399999999977 193.70000000000005 C 324.92099999999976 193.70000000000005 324.6919999999998 193.76200000000006 324.4919999999998 193.88000000000005 L 314.1579999999998 199.95800000000006 C 313.5359999999998 200.32400000000007 313.3289999999998 201.12400000000005 313.6939999999998 201.74600000000007 C 314.0609999999998 202.36900000000006 314.8619999999998 202.57600000000008 315.4819999999998 202.21000000000006 L 325.5089999999998 196.31200000000007 L 342.01699999999977 196.31200000000007 C 342.04399999999976 196.34700000000007 342.0639999999998 196.38600000000008 342.09199999999976 196.42000000000007 L 342.09199999999976 221.96900000000008 C 342.09199999999976 222.1260000000001 342.13099999999974 222.27300000000008 342.18099999999976 222.4120000000001 L 332.81599999999975 233.0390000000001 L 318.33999999999975 232.7280000000001 C 318.29699999999974 232.72600000000008 318.25799999999975 232.7420000000001 318.21499999999975 232.74400000000009 C 318.13799999999975 232.73000000000008 318.0669999999997 232.6980000000001 317.98499999999973 232.6980000000001 L 307.59 232.6980000000001 L 306.452 224.6280000000001 L 327.561 224.6280000000001 C 328.76399999999995 224.6280000000001 329.738 223.6530000000001 329.738 222.4510000000001 L 329.738 211.1300000000001 C 329.738 209.9270000000001 328.763 208.95300000000012 327.561 208.95300000000012 C 326.359 208.95300000000012 325.38399999999996 209.9280000000001 325.38399999999996 211.1300000000001 L 325.38399999999996 220.27400000000011 L 304.50899999999996 220.27400000000011 C 304.08 220.27400000000011 303.66099999999994 220.40100000000012 303.304 220.63800000000012 L 274.15099999999995 240.0120000000001 C 273.66299999999995 240.33600000000013 273.32599999999996 240.8440000000001 273.2169999999999 241.41900000000012 C 273.1069999999999 241.99500000000012 273.2349999999999 242.59000000000012 273.5709999999999 243.0710000000001 L 286.4389999999999 261.50400000000013 C 287.0919999999999 262.44100000000014 288.3579999999999 262.71300000000014 289.3399999999999 262.1270000000001 L 315.2299999999999 246.66400000000013 L 324.0709999999999 258.58000000000015 C 324.7559999999999 259.50500000000017 326.04599999999994 259.73600000000016 327.0109999999999 259.10500000000013 L 338.33199999999994 251.70300000000015 C 338.5779999999999 251.54200000000014 338.78899999999993 251.33300000000014 338.95199999999994 251.08900000000014 L 342.65999999999997 245.52700000000013 L 355.111 245.52700000000013 L 359.848 249.24900000000014 L 360.07800000000003 252.92900000000014 L 347.79400000000004 252.92900000000014 C 347.20400000000006 252.92900000000014 346.63900000000007 253.16900000000015 346.22800000000007 253.59300000000013 L 339.4940000000001 260.5600000000001 C 338.88700000000006 261.1880000000001 338.7140000000001 262.11900000000014 339.05500000000006 262.9230000000001 C 339.39700000000005 263.7280000000001 340.18600000000004 264.2500000000001 341.0590000000001 264.2500000000001 L 350.74000000000007 264.2500000000001 L 350.74000000000007 287.7150000000001 C 350.74000000000007 288.25200000000007 350.9390000000001 288.7700000000001 351.29800000000006 289.1700000000001 L 375.67500000000007 316.29600000000005 C 376.07000000000005 316.73500000000007 376.6260000000001 316.99500000000006 377.2150000000001 317.0160000000001 C 377.8180000000001 317.04100000000005 378.3780000000001 316.8180000000001 378.8040000000001 316.4100000000001 L 389.2710000000001 306.3370000000001 C 390.11000000000007 305.5290000000001 390.16600000000005 304.2050000000001 389.39700000000005 303.33100000000013 L 376.03200000000004 288.12900000000013 L 383.266 288.12900000000013 L 400.809 297.5170000000001 L 409.202 306.5630000000001 C 409.614 307.0070000000001 410.193 307.2600000000001 410.798 307.2600000000001 L 414.654 307.2600000000001 L 422.331 329.0700000000001 C 422.589 329.8040000000001 423.22 330.3440000000001 423.98400000000004 330.4870000000001 C 424.749 330.6330000000001 425.53200000000004 330.3540000000001 426.038 329.76400000000007 L 430.504 324.55300000000005 C 430.84200000000004 324.1580000000001 431.028 323.65600000000006 431.028 323.1360000000001 L 431.028 314.5930000000001 L 444.35 305.3070000000001 L 446.803 313.0030000000001 C 447.09 313.9050000000001 447.93 314.5190000000001 448.877 314.5190000000001 L 451.539 314.5190000000001 L 451.539 327.5680000000001 C 451.539 328.2050000000001 451.818 328.8100000000001 452.303 329.2240000000001 L 468.02 342.6410000000001 C 468.42499999999995 342.9870000000001 468.928 343.1620000000001 469.433 343.1620000000001 C 469.86199999999997 343.1620000000001 470.293 343.0350000000001 470.665 342.7790000000001 C 471.47700000000003 342.2210000000001 471.814 341.1880000000001 471.48600000000005 340.2590000000001 L 466.76200000000006 326.8850000000001 L 466.76200000000006 323.6420000000001 L 469.92400000000004 327.80200000000013 C 470.336 328.3440000000001 470.97700000000003 328.66200000000015 471.65700000000004 328.66200000000015 L 483.00300000000004 328.66200000000015 C 483.79 328.66200000000015 484.51500000000004 328.23800000000017 484.90000000000003 327.55200000000013 C 485.28600000000006 326.86600000000016 485.27200000000005 326.0260000000001 484.86300000000006 325.35400000000016 L 475.22600000000006 309.50500000000017 L 480.1240000000001 304.05100000000016 C 480.8250000000001 303.27000000000015 480.8690000000001 302.10100000000017 480.2300000000001 301.27000000000015 L 476.8930000000001 296.92700000000013 L 487.2580000000001 283.46000000000015 C 487.2970000000001 283.40900000000016 487.3340000000001 283.35600000000017 487.3690000000001 283.30200000000013 L 496.16800000000006 269.4950000000001 L 500.9680000000001 266.4980000000001 L 507.2220000000001 277.8150000000001 C 507.50900000000007 278.3350000000001 507.9960000000001 278.7140000000001 508.5700000000001 278.8660000000001 C 509.1420000000001 279.0180000000001 509.7550000000001 278.9290000000001 510.2610000000001 278.6210000000001 L 520.5240000000001 272.3640000000001 C 521.5510000000002 271.7380000000001 521.8750000000001 270.3980000000001 521.2490000000001 269.37200000000007 C 520.6220000000002 268.3450000000001 519.2820000000002 268.0230000000001 518.2560000000001 268.6460000000001 L 509.9330000000001 273.72100000000006 L 503.6680000000001 262.38300000000004 C 503.37900000000013 261.86 502.8870000000001 261.47900000000004 502.30900000000014 261.32800000000003 C 501.73100000000017 261.17800000000005 501.11600000000016 261.27200000000005 500.60900000000015 261.58900000000006 L 493.44400000000013 266.06300000000005 C 493.16900000000015 266.23500000000007 492.9350000000001 266.46600000000007 492.76100000000014 266.73900000000003 L 491.3700000000001 268.922 L 470.4600000000001 279.442 L 427.3500000000001 279.442 L 427.3500000000001 262.885 L 427.3500000000001 260.794 L 427.3500000000001 254.432 L 469.26400000000007 254.432 C 469.56800000000004 254.432 469.8620000000001 254.326 470.09600000000006 254.13299999999998 L 491.56300000000005 236.384 L 492.1460000000001 236.384 C 492.9340000000001 236.384 493.66100000000006 235.958 494.04600000000005 235.271 L 499.51800000000003 225.499 L 504.21700000000004 225.499 L 514.787 237.635 L 514.787 249.447 C 514.787 250.65 515.7620000000001 251.624 516.964 251.624 L 522.624 251.624 C 523.4540000000001 251.624 524.2130000000001 251.152 524.578 250.406 L 536.334 226.459 C 536.6039999999999 225.907 536.63 225.268 536.4029999999999 224.697 C 536.1769999999999 224.126 535.7189999999999 223.677 535.1439999999999 223.462 L 527.7139999999999 220.676 L 534.4659999999999 213.309 L 558.3269999999999 213.309 C 559.5289999999999 213.309 560.5039999999999 212.334 560.5039999999999 211.132 L 560.5039999999999 206.778 L 566.5999999999999 206.778 L 566.5999999999999 208.635 L 560.5369999999999 216.314 C 560.233 216.69799999999998 560.0679999999999 217.174 560.0679999999999 217.66299999999998 L 560.0679999999999 230.725 C 560.0679999999999 231.569 560.5559999999999 232.337 561.3199999999998 232.696 C 562.0839999999998 233.055 562.9869999999999 232.939 563.6359999999999 232.4 L 578.8369999999999 219.773 C 579.3339999999998 219.359 579.6229999999998 218.745 579.6229999999998 218.09799999999998 L 579.6229999999998 211.13199999999998 L 589.6369999999998 211.13199999999998 C 590.3539999999998 211.13199999999998 591.0249999999999 210.77899999999997 591.4299999999998 210.188 L 599.8139999999999 197.99699999999999 C 600.498 197.003 600.247 195.648 599.256 194.966 z M 314.619 241.909 C 314.61400000000003 241.926 314.619 241.94199999999998 314.615 241.959 L 302.348 249.285 L 297.106 242.631 L 307.295 236.004 C 307.53700000000003 235.84699999999998 307.70500000000004 235.61499999999998 307.8 235.35399999999998 L 316.558 235.35399999999998 L 314.619 241.909 z M 288.848 257.348 L 278.416 242.40400000000002 L 303.93 225.44800000000004 L 305.173 234.26800000000003 L 294.483 241.22100000000003 C 294.466 241.23200000000003 294.457 241.25000000000003 294.44100000000003 241.26200000000003 C 294.42400000000004 241.27400000000003 294.403 241.27700000000002 294.386 241.29000000000002 C 294.33000000000004 241.33400000000003 294.3 241.395 294.254 241.44600000000003 C 294.195 241.51000000000002 294.13300000000004 241.56800000000004 294.089 241.64000000000001 C 294.044 241.71400000000003 294.02 241.792 293.991 241.872 C 293.962 241.95000000000002 293.93 242.02300000000002 293.916 242.10500000000002 C 293.902 242.18900000000002 293.909 242.27100000000002 293.912 242.35600000000002 C 293.914 242.43900000000002 293.912 242.51900000000003 293.92999999999995 242.60000000000002 C 293.94899999999996 242.68500000000003 293.98999999999995 242.76200000000003 294.02599999999995 242.84300000000002 C 294.05299999999994 242.90400000000002 294.06199999999995 242.97000000000003 294.09899999999993 243.02800000000002 C 294.11299999999994 243.05 294.1329999999999 243.06600000000003 294.14899999999994 243.08700000000002 C 294.15799999999996 243.09900000000002 294.15899999999993 243.11300000000003 294.16799999999995 243.12400000000002 L 300.08599999999996 250.63600000000002 L 288.848 257.348 z M 341.494 241.172 C 340.766 241.172 340.08700000000005 241.536 339.68300000000005 242.141 L 335.576 248.301 L 326.345 254.33599999999998 L 317.55300000000005 242.486 C 317.46700000000004 242.36999999999998 317.37000000000006 242.265 317.2660000000001 242.171 L 319.28100000000006 235.35999999999999 L 333.36600000000004 235.66299999999998 C 333.73800000000006 235.67999999999998 334.119 235.51 334.374 235.22099999999998 L 344.814 223.37399999999997 C 344.84000000000003 223.34399999999997 344.848 223.30599999999995 344.87100000000004 223.27499999999998 L 355.46200000000005 223.27499999999998 L 355.46200000000005 241.17199999999997 L 341.494 241.17199999999997 z M 377.794 257.892 C 378.49899999999997 257.512 378.93899999999996 256.776 378.93899999999996 255.975 L 378.93899999999996 241.51 C 379.25499999999994 241.688 379.614 241.798 380.003 241.798 L 383.56 241.798 L 383.56 259.777 L 374.29200000000003 259.777 L 377.794 257.892 z M 403.183 293.848 L 389.166 286.346 L 407.147 264.19 L 424.73699999999997 264.19 L 424.73699999999997 281.944 L 409.71899999999994 300.71700000000004 L 403.75199999999995 294.28600000000006 C 403.588 294.11 403.396 293.961 403.183 293.848 z M 455.891 326.561 L 455.891 312.339 C 455.891 311.136 454.916 310.162 453.714 310.162 L 452.92 310.162 L 459.105 301.352 L 464.767 301.352 L 464.767 315.032 C 464.474 315.006 464.178 315.018 463.888 315.115 C 463.00199999999995 315.414 462.40599999999995 316.244 462.40599999999995 317.178 L 462.40599999999995 327.256 C 462.40599999999995 327.503 462.4479999999999 327.748 462.53 327.981 L 464.678 334.062 L 455.891 326.561 z M 470.769 282.053 C 470.973 282.053 471.174 282.005 471.356 281.914 L 488.625 273.22499999999997 L 483.747 280.87899999999996 L 472.42 295.59599999999995 C 471.81800000000004 296.37799999999993 471.81800000000004 297.4669999999999 472.41900000000004 298.24999999999994 L 475.67400000000004 302.48599999999993 L 470.903 307.79799999999994 C 470.262 308.5129999999999 470.16400000000004 309.56299999999993 470.663 310.38399999999996 L 479.129 324.30699999999996 L 472.735 324.30699999999996 L 467.38 317.26099999999997 L 467.38 300.04699999999997 C 467.38 299.325 466.795 298.741 466.074 298.741 L 460.94 298.741 L 464.179 294.128 C 464.33399999999995 293.90799999999996 464.416 293.64599999999996 464.416 293.378 L 464.416 282.055 L 470.769 282.055 z M 461.803 282.053 L 461.803 292.963 L 450.236 309.43800000000005 L 447.599 301.16900000000004 C 447.389 300.51000000000005 446.87899999999996 299.99000000000007 446.224 299.76800000000003 C 445.569 299.54600000000005 444.848 299.648 444.28 300.04400000000004 L 427.604 311.66700000000003 C 427.02 312.074 426.67199999999997 312.74100000000004 426.67199999999997 313.45300000000003 L 426.67199999999997 322.32700000000006 L 425.18399999999997 324.0640000000001 L 418.248 304.3570000000001 C 417.941 303.48500000000007 417.118 302.9030000000001 416.194 302.9030000000001 L 411.74600000000004 302.9030000000001 L 411.514 302.6530000000001 L 427.06100000000004 283.2180000000001 C 427.24600000000004 282.98600000000005 427.348 282.69900000000007 427.348 282.4020000000001 L 427.348 282.0530000000001 L 461.803 282.0530000000001 z M 468.793 251.818 L 426.043 251.818 C 425.322 251.818 424.737 252.40300000000002 424.737 253.12400000000002 L 424.737 260.79200000000003 L 424.737 261.57700000000006 L 406.52500000000003 261.57700000000006 C 406.13100000000003 261.57700000000006 405.759 261.7540000000001 405.51000000000005 262.06000000000006 L 386.82000000000005 285.09000000000003 L 384.838 284.03000000000003 C 384.52200000000005 283.86100000000005 384.16900000000004 283.77200000000005 383.81100000000004 283.77200000000005 L 371.218 283.77200000000005 C 370.362 283.77200000000005 369.58700000000005 284.273 369.235 285.052 C 368.882 285.831 369.01800000000003 286.744 369.583 287.387 L 384.752 304.64 L 377.407 311.709 L 355.094 286.879 L 355.094 264.249 L 365.442 264.249 C 365.803 264.249 366.157 264.16 366.474 263.98900000000003 L 369.509 262.355 C 369.697 263.36600000000004 370.58000000000004 264.13300000000004 371.646 264.13300000000004 L 385.738 264.13300000000004 C 386.94 264.13300000000004 387.915 263.158 387.915 261.956 L 387.915 239.62300000000002 C 387.915 238.42100000000002 386.94100000000003 237.44600000000003 385.738 237.44600000000003 L 380.004 237.44600000000003 C 379.615 237.44600000000003 379.25600000000003 237.55600000000004 378.94 237.73400000000004 L 378.94 232.02900000000002 L 389.825 232.02900000000002 C 390.34499999999997 232.02900000000002 390.847 231.84300000000002 391.24199999999996 231.50500000000002 L 399.77399999999994 224.19200000000004 L 420.7819999999999 224.19200000000004 L 427.1219999999999 235.28600000000003 C 427.5099999999999 235.96400000000003 428.2309999999999 236.38300000000004 429.0129999999999 236.38300000000004 L 487.46399999999994 236.38300000000004 L 468.793 251.818 z M 470.938 357.957 C 470.44 357.957 469.94 357.788 469.53 357.441 L 449.08399999999995 340.104 C 448.167 339.32599999999996 448.054 337.952 448.83099999999996 337.03499999999997 C 449.60999999999996 336.11699999999996 450.98199999999997 336.00399999999996 451.9 336.782 L 472.346 354.11899999999997 C 473.263 354.897 473.376 356.27 472.599 357.188 C 472.169 357.696 471.556 357.957 470.938 357.957 z M 479.584 349.248 C 478.38100000000003 349.248 477.407 348.27299999999997 477.407 347.07099999999997 L 477.407 341.07899999999995 C 477.407 339.876 478.382 338.90199999999993 479.584 338.90199999999993 C 480.786 338.90199999999993 481.761 339.87699999999995 481.761 341.07899999999995 L 481.761 347.07099999999997 C 481.761 348.274 480.786 349.248 479.584 349.248 z M 499.159 340.549 L 500.143 339.644 C 501.029 338.829 502.405 338.887 503.219 339.772 C 504.033 340.657 503.976 342.034 503.091 342.848 L 501.482 344.32800000000003 C 501.08000000000004 344.69800000000004 500.55400000000003 344.903 500.00800000000004 344.903 L 496.17400000000004 344.903 L 493.16200000000003 348.36 C 492.732 348.85400000000004 492.127 349.107 491.52000000000004 349.107 C 491.01200000000006 349.107 490.50300000000004 348.93100000000004 490.09000000000003 348.571 C 489.18300000000005 347.781 489.08900000000006 346.406 489.879 345.499 L 493.54200000000003 341.295 C 493.95500000000004 340.82 494.55400000000003 340.548 495.18300000000005 340.548 L 499.159 340.548 z M 551.025 361.839 L 551.025 359.748 L 536.3109999999999 351.061 L 536.2479999999999 361.366 C 536.2399999999999 362.562 535.2679999999999 363.529 534.0709999999999 363.529 L 522.7319999999999 363.529 C 521.5299999999999 363.529 520.5549999999998 362.554 520.5549999999998 361.352 L 520.5549999999998 358.888 C 520.5549999999998 357.686 521.5299999999999 356.71099999999996 522.7319999999999 356.71099999999996 C 523.9349999999998 356.71099999999996 524.9089999999999 357.686 524.9089999999999 358.888 L 524.9089999999999 359.17499999999995 L 531.9069999999999 359.17499999999995 L 531.963 349.88699999999994 L 529.48 349.87299999999993 L 526.508 352.4669999999999 C 526.0500000000001 352.86799999999994 525.4480000000001 353.0609999999999 524.836 352.98999999999995 C 524.23 352.92299999999994 523.6800000000001 352.60499999999996 523.32 352.11199999999997 L 521.4250000000001 349.52399999999994 C 521.1490000000001 349.14699999999993 521.0020000000001 348.69199999999995 521.0050000000001 348.22499999999997 L 521.0220000000002 345.4 C 521.0300000000002 344.202 522.0030000000002 343.236 523.1990000000002 343.236 C 523.2030000000002 343.236 523.2080000000002 343.236 523.2120000000002 343.236 C 524.4150000000002 343.24399999999997 525.3830000000003 344.224 525.3760000000002 345.426 L 525.3630000000002 347.533 L 525.4320000000001 347.627 L 527.2380000000002 346.051 C 527.6340000000001 345.705 528.1430000000001 345.514 528.6690000000002 345.514 C 528.6730000000002 345.514 528.6770000000002 345.514 528.6820000000002 345.514 L 534.1660000000003 345.547 C 534.7130000000003 345.55 535.2340000000003 345.76500000000004 535.6320000000003 346.136 C 536.0920000000003 346.079 536.5720000000003 346.16 537.0020000000003 346.41400000000004 L 554.3080000000003 356.63200000000006 C 554.9710000000003 357.0230000000001 555.3780000000004 357.73600000000005 555.3780000000004 358.5060000000001 L 555.3780000000004 361.8400000000001 C 555.3780000000004 363.0420000000001 554.4040000000003 364.0170000000001 553.2010000000004 364.0170000000001 C 551.9980000000004 364.0170000000001 551.025 363.042 551.025 361.839 z M 593.187 418.183 L 587.539 426.618 C 587.135 427.222 586.456 427.584 585.73 427.584 L 583.463 427.584 L 578.601 435.529 C 578.205 436.175 577.501 436.57 576.744 436.57 L 571.647 436.57 C 570.445 436.57 569.47 435.59499999999997 569.47 434.393 C 569.47 433.191 570.445 432.21599999999995 571.647 432.21599999999995 L 575.524 432.21599999999995 L 580.386 424.27099999999996 C 580.7819999999999 423.62499999999994 581.486 423.22999999999996 582.2429999999999 423.22999999999996 L 584.568 423.22999999999996 L 589.5699999999999 415.76099999999997 C 590.2389999999999 414.76099999999997 591.592 414.49499999999995 592.5899999999999 415.16299999999995 C 593.588 415.832 593.856 417.185 593.187 418.183 z M 553.836 265.917 C 553.836 267.11899999999997 552.861 268.094 551.659 268.094 L 547.153 268.094 L 547.153 274.479 C 547.153 275.68199999999996 546.179 276.656 544.976 276.656 L 539.066 276.656 L 538.1890000000001 283.244 C 538.1260000000001 283.713 537.9130000000001 284.149 537.58 284.48600000000005 L 529.663 292.50600000000003 C 529.254 292.92 528.696 293.15400000000005 528.114 293.15400000000005 L 523.645 293.15400000000005 L 522.169 294.5760000000001 L 522.169 305.2150000000001 L 523.883 305.2150000000001 L 535.431 296.4070000000001 C 536.388 295.6780000000001 537.753 295.8620000000001 538.4830000000001 296.8180000000001 C 539.2120000000001 297.7740000000001 539.028 299.1400000000001 538.071 299.8690000000001 L 525.9390000000001 309.1230000000001 C 525.5590000000001 309.4120000000001 525.095 309.56900000000013 524.618 309.56900000000013 L 519.9910000000001 309.56900000000013 C 518.7890000000001 309.56900000000013 517.8140000000001 308.5940000000001 517.8140000000001 307.3920000000001 L 517.8140000000001 293.65 C 517.8140000000001 293.05899999999997 518.0550000000001 292.49199999999996 518.4810000000001 292.082 L 521.2570000000001 289.409 C 521.663 289.018 522.2040000000001 288.8 522.767 288.8 L 527.2040000000001 288.8 L 533.97 281.947 L 535.001 274.192 C 535.146 273.11 536.068 272.302 537.159 272.302 L 542.798 272.302 L 542.798 265.91700000000003 C 542.798 264.71400000000006 543.772 263.74 544.975 263.74 L 551.658 263.74 C 552.861 263.74 553.836 264.715 553.836 265.917 z M 499.666 316.781 L 499.666 310.246 C 499.666 309.777 499.818 309.31899999999996 500.099 308.943 L 507.608 298.893 C 508.32800000000003 297.92999999999995 509.694 297.731 510.65500000000003 298.452 C 511.61800000000005 299.171 511.81600000000003 300.536 511.096 301.499 L 504.02 310.96900000000005 L 504.02 316.78000000000003 C 504.02 317.983 503.04499999999996 318.95700000000005 501.84299999999996 318.95700000000005 C 500.641 318.958 499.666 317.983 499.666 316.781 z M 499.666 324.837 C 499.666 323.634 500.641 322.65999999999997 501.843 322.65999999999997 C 503.045 322.65999999999997 504.02000000000004 323.63399999999996 504.02000000000004 324.837 L 504.02000000000004 327.37 L 509.46000000000004 327.37 C 510.26300000000003 327.37 511.00000000000006 327.811 511.379 328.519 L 514.032 333.471 C 514.599 334.531 514.2 335.85 513.1410000000001 336.418 C 512.8140000000001 336.593 512.4620000000001 336.676 512.1150000000001 336.677 C 511.3390000000001 336.677 510.5870000000001 336.259 510.1950000000001 335.52700000000004 L 508.1570000000001 331.72400000000005 L 501.8440000000001 331.72400000000005 C 500.64100000000013 331.72400000000005 499.6670000000001 330.749 499.6670000000001 329.547 L 499.6670000000001 324.837 z M 122.96 160.388 C 122.48299999999999 159.99200000000002 122.19699999999999 159.411 122.175 158.791 C 122.152 158.171 122.395 157.571 122.843 157.142 L 130.127 150.153 C 130.815 149.49099999999999 131.85500000000002 149.356 132.691 149.82 L 140.921 154.393 C 141.97199999999998 154.977 142.351 156.303 141.767 157.354 C 141.182 158.405 139.857 158.782 138.807 158.20000000000002 L 131.982 154.40800000000002 L 127.618 158.59500000000003 L 136.749 166.17300000000003 C 137.24699999999999 166.58700000000002 137.536 167.20100000000002 137.536 167.84800000000004 L 137.536 172.40300000000005 L 149.437 172.40300000000005 L 149.437 166.00100000000006 C 149.437 164.79800000000006 150.412 163.82400000000007 151.614 163.82400000000007 C 152.817 163.82400000000007 153.791 164.79900000000006 153.791 166.00100000000006 L 153.791 174.58000000000007 C 153.791 175.78300000000007 152.816 176.75700000000006 151.614 176.75700000000006 L 135.359 176.75700000000006 C 134.156 176.75700000000006 133.18200000000002 175.78300000000007 133.18200000000002 174.58000000000007 L 133.18200000000002 168.87000000000006 L 122.96 160.388 z M 76.241 173.162 C 75.72 172.079 76.176 170.77800000000002 77.26 170.257 L 85.497 166.299 C 85.791 166.15800000000002 86.114 166.084 86.44 166.084 L 100.347 166.084 C 101.54899999999999 166.084 102.524 167.059 102.524 168.261 C 102.524 169.464 101.549 170.438 100.347 170.438 L 86.936 170.438 L 79.146 174.18099999999998 C 78.842 174.32699999999997 78.521 174.396 78.205 174.396 C 77.393 174.397 76.615 173.942 76.241 173.162 z M 378.042 169.638 L 378.042 155.324 C 378.042 154.121 379.017 153.14700000000002 380.219 153.14700000000002 C 381.42199999999997 153.14700000000002 382.396 154.121 382.396 155.324 L 382.396 169.638 C 382.396 170.841 381.421 171.815 380.219 171.815 C 379.016 171.815 378.042 170.84 378.042 169.638 z M 272.648 215.18 C 271.925 214.219 272.11800000000005 212.854 273.08000000000004 212.132 C 274.03900000000004 211.409 275.40600000000006 211.603 276.12800000000004 212.564 L 279.89700000000005 217.576 L 289.225 211.674 L 281.732 200.126 C 281.07800000000003 199.11700000000002 281.365 197.769 282.374 197.115 C 283.38 196.461 284.73 196.747 285.38500000000005 197.756 L 294.076 211.151 C 294.392 211.639 294.5 212.234 294.37600000000003 212.80200000000002 C 294.25100000000003 213.37000000000003 293.90500000000003 213.865 293.413 214.17600000000002 L 280.527 222.329 C 280.166 222.55700000000002 279.763 222.666 279.365 222.666 C 278.702 222.666 278.04900000000004 222.363 277.623 221.797 L 272.648 215.18 z M 476.264 358.78 L 499.515 358.78 C 500.71799999999996 358.78 501.692 359.75399999999996 501.692 360.957 C 501.692 362.16 500.717 363.134 499.515 363.134 L 476.264 363.134 C 475.062 363.134 474.087 362.159 474.087 360.957 C 474.087 359.755 475.062 358.78 476.264 358.78 z M 508.61 357.957 L 508.61 358.78 L 509.206 358.78 C 510.408 358.78 511.38300000000004 359.75399999999996 511.38300000000004 360.957 C 511.38300000000004 362.16 510.408 363.134 509.206 363.134 L 506.433 363.134 C 505.231 363.134 504.256 362.159 504.256 360.957 L 504.256 357.957 C 504.256 356.755 505.231 355.78 506.433 355.78 C 507.635 355.78 508.61 356.755 508.61 357.957 z M 510.911 350.873 L 506.942 350.873 C 505.73900000000003 350.873 504.765 349.899 504.765 348.69599999999997 C 504.765 347.49299999999994 505.739 346.51899999999995 506.942 346.51899999999995 L 509.39300000000003 346.51899999999995 L 510.6 343.24299999999994 C 511.01500000000004 342.1139999999999 512.2660000000001 341.5349999999999 513.395 341.9529999999999 C 514.523 342.3689999999999 515.101 343.6199999999999 514.685 344.74799999999993 L 512.954 349.4479999999999 C 512.638 350.304 511.823 350.873 510.911 350.873 z" stroke-linecap="round" />
</g>
</svg>